Coordinates
version=1
nRows=21
nColumns=22
inDegrees=yes

Units are S.I. units (second, meters, Newtons, ...)
If the header above contains a line with 'inDegrees', this indicates whether rotational values are in degrees (yes) or radians (no).

endheader
time	pelvis_tilt	pelvis_list	pelvis_rotation	pelvis_tx	pelvis_ty	pelvis_tz	hip_flexion_r	hip_adduction_r	hip_rotation_r	knee_angle_r	ankle_angle_r	subtalar_angle_r	hip_flexion_l	hip_adduction_l	hip_rotation_l	knee_angle_l	ankle_angle_l	subtalar_angle_l	lumbar_extension	lumbar_bending	lumbar_rotation
      0.86000000	     -3.24034106	      8.12756837	    -31.78842704	     -0.77599291	      0.86142296	     -0.37814937	     10.80025821	     -5.18666571	      9.20790113	    -43.50791472	     25.45684500	    -10.19675557	      0.13731110	      5.95206502	    -11.20585918	    -23.82580415	     20.98046252	      0.17206898	     -1.54949289	     -8.88788053	      9.44515508
      0.87000000	     -3.27807232	      8.00599811	    -31.74001863	     -0.77166636	      0.86026591	     -0.37682601	     12.83273897	     -4.44953181	     10.13352148	    -47.60292529	     23.76256515	    -10.54148661	     -0.45224890	      5.90632215	    -11.20450291	    -23.43511848	     21.23271834	      0.31365225	     -1.93175281	     -8.84514596	      8.94974562
      0.88000000	     -3.25151693	      7.77275129	    -31.64034358	     -0.76708943	      0.85923066	     -0.37534268	     14.73591060	     -3.66109908	     10.76593892	    -51.55931649	     22.03411700	    -10.69083515	     -1.25039351	      5.80432480	    -11.16960661	    -22.92154583	     21.52590041	      0.42625526	     -2.44783861	     -8.71860070	      8.37060892
      0.89000000	     -3.20789541	      7.48087227	    -31.48041283	     -0.76226414	      0.85817278	     -0.37373096	     16.58910299	     -2.88857134	     11.07944030	    -55.35074185	     20.45183357	    -10.52692744	     -2.13808713	      5.64082511	    -11.21106914	    -22.37470259	     21.87877333	      0.54621702	     -3.01121836	     -8.53107860	      7.67094474
      0.90000000	     -3.16016416	      7.07442193	    -31.26606503	     -0.75711400	      0.85718373	     -0.37194978	     18.32023700	     -2.07538016	     11.13294634	    -58.87213427	     19.10469115	    -10.06997892	     -3.18395960	      5.38388031	    -11.20188347	    -21.70372679	     22.25759032	      0.65229396	     -3.63009984	     -8.21138684	      6.90759049
      0.91000000	     -3.07194476	      6.60032625	    -30.96264835	     -0.75164455	      0.85624010	     -0.37010670	     19.94201652	     -1.35243699	     10.85244358	    -62.13581105	     18.11254679	     -9.40259164	     -4.33709641	      5.06935350	    -11.22073329	    -21.00927986	     22.65812232	      0.74797316	     -4.32731482	     -7.83111346	      6.01739875
      0.92000000	     -3.02910540	      6.10067149	    -30.62327495	     -0.74596908	      0.85523778	     -0.36814999	     21.56941666	     -0.66246320	     10.39033053	    -65.14020746	     17.45954687	     -8.84982573	     -5.49642222	      4.69971895	    -11.25462515	    -20.27435303	     23.04535409	      0.81872150	     -4.98118685	     -7.38505730	      5.11778621
      0.93000000	     -3.02233933	      5.61003132	    -30.26959147	     -0.74015692	      0.85417042	     -0.36609199	     23.23229394	     -0.03480129	      9.80559123	    -67.90611022	     17.04310006	     -8.18369203	     -6.63044861	      4.31145249	    -11.32103482	    -19.52804294	     23.38945023	      0.87972539	     -5.58455114	     -6.91879073	      4.21187839
      0.94000000	     -3.08362520	      5.09702858	    -29.84334313	     -0.73418127	      0.85307131	     -0.36401277	     24.92297485	      0.53511932	      9.02251171	    -70.40009763	     16.84611488	     -7.91220087	     -7.69735233	      3.84385050	    -11.38871825	    -18.81705804	     23.72624176	      0.91683709	     -6.13236637	     -6.37999603	      3.27032258
      0.95000000	     -3.17463404	      4.61882414	    -29.39857937	     -0.72811088	      0.85194089	     -0.36189553	     26.66633609	      0.99529467	      8.14481364	    -72.66494753	     16.72583005	     -7.52692164	     -8.69757083	      3.37757465	    -11.49542306	    -18.14105630	     23.99719403	      0.95624333	     -6.63665967	     -5.85418658	      2.34434122
      0.96000000	     -3.28023821	      4.19239616	    -28.96296504	     -0.72197329	      0.85077863	     -0.35969560	     28.45924293	      1.35190504	      7.24751283	    -74.71552850	     16.61722340	     -6.97145100	     -9.63000895	      2.93752944	    -11.65998186	    -17.51538350	     24.18657648	      1.01462736	     -7.10417228	     -5.37319334	      1.43852161
      0.97000000	     -3.42202577	      3.75613504	    -28.48763537	     -0.71561436	      0.84964524	     -0.35740706	     30.23692850	      1.64194728	      6.26126262	    -76.49408824	     16.55564417	     -6.87259341	    -10.52862291	      2.45655159	    -11.76451463	    -16.91241785	     24.30676747	      1.04753830	     -7.53640499	     -4.85594738	      0.55751749
      0.98000000	     -3.59781545	      3.34562309	    -27.96967295	     -0.70901895	      0.84848780	     -0.35501151	     32.01017176	      1.83904385	      5.22536792	    -78.01623160	     16.52818799	     -6.73242525	    -11.35090948	      1.95380627	    -11.84652513	    -16.38340407	     24.34359650	      1.11521776	     -7.91849583	     -4.34141750	     -0.34572739
      0.99000000	     -3.80088024	      2.96137060	    -27.41641884	     -0.70208749	      0.84729208	     -0.35243530	     33.74850398	      1.94972340	      4.16461120	    -79.27870783	     16.53949721	     -6.54668506	    -12.12108194	      1.43593633	    -11.88524804	    -15.91008373	     24.32203741	      1.25282625	     -8.24032711	     -3.83459915	     -1.26850889
      1.00000000	     -4.03929092	      2.58711320	    -26.83161128	     -0.69475069	      0.84607904	     -0.34962303	     35.43008185	      1.99431199	      3.07339611	    -80.27021297	     16.52326238	     -6.32157714	    -12.84881535	      0.88317904	    -11.88044587	    -15.48301722	     24.15214791	      1.50079571	     -8.49312344	     -3.31589489	     -2.17310340
      1.01000000	     -4.29999366	      2.21457120	    -26.20467619	     -0.68698572	      0.84489011	     -0.34656539	     37.01009975	      1.96960484	      1.94110738	    -80.97840798	     16.56475958	     -6.26658127	    -13.54234257	      0.29216474	    -11.78969168	    -15.11153456	     23.87076639	      1.58667430	     -8.69560773	     -2.78290379	     -3.09046432
      1.02000000	     -4.60348558	      1.85259206	    -25.54577380	     -0.67887411	      0.84370772	     -0.34325677	     38.50802221	      1.91132041	      0.80674499	    -81.40849659	     16.65871547	     -6.17342082	    -14.15603320	     -0.34310252	    -11.63365254	    -14.82429890	     23.57963334	      1.80893266	     -8.83281904	     -2.23015816	     -4.07710594
      1.03000000	     -4.95155746	      1.47660959	    -24.90845292	     -0.67051238	      0.84263204	     -0.33964719	     39.90397324	      1.87244753	     -0.32080263	    -81.54340412	     16.77044578	     -6.08980248	    -14.69840601	     -1.03229667	    -11.45942518	    -14.61696730	     23.12742159	      2.06706389	     -8.92661492	     -1.63648414	     -5.01606045
      1.04000000	     -5.33076876	      1.06665591	    -24.33261801	     -0.66202344	      0.84175125	     -0.33568772	     41.16402013	      1.91283465	     -1.41782881	    -81.37418239	     16.90513826	     -6.04172420	    -15.17694182	     -1.78239856	    -11.31697308	    -14.50876893	     22.52055510	      2.48333555	     -9.01795986	     -0.99500928	     -5.89321161
      1.05000000	     -5.72266609	      0.64226129	    -23.81273205	     -0.65346227	      0.84114122	     -0.33145037	     42.26985054	      2.01034640	     -2.48236080	    -80.90876500	     17.03324394	     -6.05180088	    -15.59058028	     -2.55566183	    -11.12868561	    -14.49798412	     21.81813219	      2.63599220	     -9.13194991	     -0.32158591	     -6.75486471
      1.06000000	     -6.11473708	      0.17929121	    -23.38453137	     -0.64482452	      0.84086018	     -0.32685528	     43.17353858	      2.21319017	     -3.52117292	    -80.14362053	     17.15374707	     -6.12003355	    -15.96490912	     -3.36820227	    -10.99925141	    -14.59172396	     20.94587564	      2.83706864	     -9.29206413	      0.39798147	     -7.53074961
